<?xml version="1.0" encoding="utf-8"?>
<!-- Generator: Adobe Illustrator 28.0.0, SVG Export Plug-In . SVG Version: 6.00 Build 0)  -->
<svg version="1.1" id="Layer_1" xmlns="http://www.w3.org/2000/svg" xmlns:xlink="http://www.w3.org/1999/xlink" x="0px" y="0px"
	 viewBox="0 0 1650 1080" style="enable-background:new 0 0 1650 1080;" xml:space="preserve">
<style type="text/css">
	.st0{fill:#FFC64D;}
	.st1{clip-path:url(#SVGID_00000153667674904955047870000008551146437785576360_);}
	.st2{fill:#FFBB2E;}
	.st3{clip-path:url(#SVGID_00000167377174327918800380000001488879118669212808_);}
	.st4{clip-path:url(#SVGID_00000014621231019885142240000000513194501239765902_);}
	.st5{fill:#FFFFFF;}
</style>
<g id="BACKGROUND">
	<rect class="st0" width="1920" height="1080"/>
</g>
<g id="OBJECTS">
	<g>
		<g>
			<defs>
				<rect id="SVGID_1_" width="1920" height="1080"/>
			</defs>
			<clipPath id="SVGID_00000057135200192018777740000002602025563750837919_">
				<use xlink:href="#SVGID_1_"  style="overflow:visible;"/>
			</clipPath>
			<g style="clip-path:url(#SVGID_00000057135200192018777740000002602025563750837919_);">
				<path class="st2" d="M503-131.5L356.6-44L202.7,48.1l-154,92l-145.5,87c-4.6,2.8-6.2,8.8-3.4,13.4l76.1,127.3
					c2.8,4.6,8.8,6.2,13.4,3.4l145.5-87l153.9-92.1L442.6,100L589,12.5c4.2-2.5,5.5-7.9,3-12.1l-77.2-129
					C512.6-132.7,507.2-134,503-131.5z M3.5,180l10.1-6c1.5-0.9,3.5-0.4,4.4,1.1s0.4,3.5-1.1,4.4l-10.1,6c-1.5,0.9-3.5,0.4-4.4-1.1
					C1.5,182.9,2,180.9,3.5,180z M-27.6,198.7l10.1-6c1.5-0.9,3.5-0.4,4.4,1.1s0.4,3.5-1.1,4.4l-10.1,6c-1.5,0.9-3.5,0.4-4.4-1.1
					C-29.7,201.6-29.2,199.6-27.6,198.7z M-58.8,217.3l10.1-6c1.5-0.9,3.5-0.4,4.4,1.1s0.4,3.5-1.1,4.4l-10.1,6
					c-1.5,0.9-3.5,0.4-4.4-1.1C-60.8,220.2-60.3,218.2-58.8,217.3z M-89.9,235.9l10.1-6c1.5-0.9,3.5-0.4,4.4,1.1s0.4,3.5-1.1,4.4
					l-10.1,6c-1.5,0.9-3.5,0.4-4.4-1.1C-92,238.8-91.5,236.8-89.9,235.9z M-5,355.1l-10.1,6c-1.5,0.9-3.5,0.4-4.4-1.1
					s-0.4-3.5,1.1-4.4l10.1-6c1.5-0.9,3.5-0.4,4.4,1.1C-2.9,352.2-3.4,354.2-5,355.1z M26.2,336.5l-10.1,6c-1.5,0.9-3.5,0.4-4.4-1.1
					s-0.4-3.5,1.1-4.4l10.1-6c1.5-0.9,3.5-0.4,4.4,1.1C28.2,333.5,27.7,335.5,26.2,336.5z M57.3,317.8l-10.1,6
					c-1.5,0.9-3.5,0.4-4.4-1.1s-0.4-3.5,1.1-4.4l10.1-6c1.5-0.9,3.5-0.4,4.4,1.1C59.4,314.9,58.9,316.9,57.3,317.8z M88.5,299.2
					l-10.1,6c-1.5,0.9-3.5,0.4-4.4-1.1s-0.4-3.5,1.1-4.4l10.1-6c1.5-0.9,3.5-0.4,4.4,1.1C90.5,296.3,90,298.3,88.5,299.2z M-3,333.6
					c-8.2,4.9-18.7,2.2-23.6-5.9L-65.9,262c-0.6-0.9-1-1.9-1.4-2.9c-0.2-0.6-0.4-1.3-0.5-1.9c-0.1-0.3-0.2-0.7-0.2-1
					c-0.2-0.9-0.2-1.8-0.2-2.6c0-0.1,0-0.1,0-0.2c0-1,0.1-1.9,0.2-2.9l0,0l0,0c0.8-4.8,3.5-9.3,8.1-12l92.6-55.4
					c8.2-4.9,18.7-2.2,23.6,5.9l39.3,65.7c2.9,4.8,3.1,10.5,1.1,15.4l0,0c-0.4,1-0.9,2-1.6,2.9c-0.1,0.1-0.1,0.2-0.2,0.3
					c-0.6,0.8-1.2,1.6-1.9,2.3c-0.1,0.2-0.3,0.3-0.4,0.5c-0.9,0.8-1.8,1.6-2.9,2.2L-3,333.6z M119.6,280.6l-10.1,6
					c-1.5,0.9-3.5,0.4-4.4-1.1s-0.4-3.5,1.1-4.4l10.1-6c1.5-0.9,3.5-0.4,4.4,1.1S121.1,279.7,119.6,280.6z M48.1,160.9L38,167
					c-1.5,0.9-3.5,0.4-4.4-1.1s-0.4-3.5,1.1-4.4l10.1-6c1.5-0.9,3.5-0.4,4.4,1.1C50.1,158,49.6,160,48.1,160.9z M157.5,88l10.1-6
					c1.5-0.9,3.5-0.4,4.4,1.1s0.4,3.5-1.1,4.4l-10.1,6c-1.5,0.9-3.5,0.4-4.4-1.1C155.4,90.9,155.9,88.9,157.5,88z M126.3,106.6
					l10.1-6c1.5-0.9,3.5-0.4,4.4,1.1s0.4,3.5-1.1,4.4l-10.1,6c-1.5,0.9-3.5,0.4-4.4-1.1C124.3,109.5,124.8,107.5,126.3,106.6z
					 M95.2,125.2l10.1-6c1.5-0.9,3.5-0.4,4.4,1.1s0.4,3.5-1.1,4.4l-10.1,6c-1.5,0.9-3.5,0.4-4.4-1.1
					C93.1,128.1,93.6,126.1,95.2,125.2z M64,143.8l10.1-6c1.5-0.9,3.5-0.4,4.4,1.1s0.4,3.5-1.1,4.4l-10.1,6
					c-1.5,0.9-3.5,0.4-4.4-1.1S62.5,144.8,64,143.8z M149,263l-10.1,6c-1.5,0.9-3.5,0.4-4.4-1.1s-0.4-3.5,1.1-4.4l10.1-6
					c1.5-0.9,3.5-0.4,4.4,1.1S150.5,262.1,149,263z M180.1,244.4l-10.1,6c-1.5,0.9-3.5,0.4-4.4-1.1s-0.4-3.5,1.1-4.4l10.1-6
					c1.5-0.9,3.5-0.4,4.4,1.1C182.2,241.5,181.7,243.5,180.1,244.4z M211.3,225.8l-10.1,6c-1.5,0.9-3.5,0.4-4.4-1.1
					s-0.4-3.5,1.1-4.4l10.1-6c1.5-0.9,3.5-0.4,4.4,1.1C213.3,222.9,212.8,224.8,211.3,225.8z M242.4,207.1l-10.1,6
					c-1.5,0.9-3.5,0.4-4.4-1.1s-0.4-3.5,1.1-4.4l10.1-6c1.5-0.9,3.5-0.4,4.4,1.1C244.4,204.2,243.9,206.2,242.4,207.1z M151,241.5
					c-8.2,4.9-18.7,2.2-23.6-5.9l-39.3-65.7c-0.6-0.9-1-1.9-1.4-2.9c-0.2-0.6-0.4-1.3-0.5-1.9c-0.1-0.3-0.2-0.7-0.2-1
					c-0.2-0.9-0.2-1.8-0.2-2.6c0-0.1,0-0.1,0-0.2c0-1,0.1-1.9,0.2-2.9l0,0l0,0c0.8-4.8,3.5-9.3,8.1-12L186.7,91
					c8.2-4.9,18.7-2.2,23.6,5.9l39.3,65.7c2.9,4.8,3.1,10.5,1.1,15.4l0,0c-0.4,1-0.9,2-1.6,2.9c-0.1,0.1-0.1,0.2-0.2,0.3
					c-0.6,0.8-1.2,1.6-1.9,2.3c-0.1,0.2-0.3,0.3-0.4,0.5c-0.9,0.8-1.8,1.6-2.9,2.2L151,241.5z M273.6,188.5l-10.1,6
					c-1.5,0.9-3.5,0.4-4.4-1.1s-0.4-3.5,1.1-4.4l10.1-6c1.5-0.9,3.5-0.4,4.4,1.1S275.1,187.6,273.6,188.5z M202,68.9l-10.1,6
					c-1.5,0.9-3.5,0.4-4.4-1.1s-0.4-3.5,1.1-4.4l10.1-6c1.5-0.9,3.5-0.4,4.4,1.1S203.5,67.9,202,68.9z M311.4-4.1l10.1-6
					c1.5-0.9,3.5-0.4,4.4,1.1s0.4,3.5-1.1,4.4l-10.1,6c-1.5,0.9-3.5,0.4-4.4-1.1S309.9-3.2,311.4-4.1z M280.3,14.5l10.1-6
					c1.5-0.9,3.5-0.4,4.4,1.1s0.4,3.5-1.1,4.4l-10.1,6c-1.5,0.9-3.5,0.4-4.4-1.1C278.2,17.4,278.7,15.4,280.3,14.5z M249.1,33.1
					l10.1-6c1.5-0.9,3.5-0.4,4.4,1.1s0.4,3.5-1.1,4.4l-10.1,6c-1.5,0.9-3.5,0.4-4.4-1.1C247.1,36.1,247.6,34.1,249.1,33.1z
					 M218,51.8l10.1-6c1.5-0.9,3.5-0.4,4.4,1.1s0.4,3.5-1.1,4.4l-10.1,6c-1.5,0.9-3.5,0.4-4.4-1.1C215.9,54.7,216.4,52.7,218,51.8z
					 M302.9,171l-10.1,6c-1.5,0.9-3.5,0.4-4.4-1.1s-0.4-3.5,1.1-4.4l10.1-6c1.5-0.9,3.5-0.4,4.4,1.1C305,168,304.5,170,302.9,171z
					 M334.1,152.3l-10.1,6c-1.5,0.9-3.5,0.4-4.4-1.1s-0.4-3.5,1.1-4.4l10.1-6c1.5-0.9,3.5-0.4,4.4,1.1
					C336.1,149.4,335.6,151.4,334.1,152.3z M365.2,133.7l-10.1,6c-1.5,0.9-3.5,0.4-4.4-1.1s-0.4-3.5,1.1-4.4l10.1-6
					c1.5-0.9,3.5-0.4,4.4,1.1C367.2,130.8,366.7,132.8,365.2,133.7z M396.4,115.1l-10.1,6c-1.5,0.9-3.5,0.4-4.4-1.1
					s-0.4-3.5,1.1-4.4l10.1-6c1.5-0.9,3.5-0.4,4.4,1.1S397.9,114.2,396.4,115.1z M304.9,149.4c-8.2,4.9-18.7,2.2-23.6-5.9L242,77.8
					c-0.6-0.9-1-1.9-1.4-2.9c-0.2-0.6-0.4-1.3-0.5-1.9c-0.1-0.3-0.2-0.7-0.2-1c-0.2-0.9-0.2-1.8-0.2-2.6c0-0.1,0-0.1,0-0.2
					c0-1,0.1-1.9,0.2-2.9l0,0l0,0c0.8-4.8,3.5-9.3,8.1-12l92.6-55.4c8.2-4.9,18.7-2.2,23.6,5.9l39.3,65.7c2.9,4.8,3.1,10.5,1.1,15.4
					l0,0c-0.4,1-0.9,2-1.6,2.9c-0.1,0.1-0.1,0.2-0.2,0.3c-0.6,0.8-1.2,1.6-1.9,2.3c-0.1,0.2-0.3,0.3-0.4,0.5
					c-0.9,0.8-1.8,1.6-2.9,2.2L304.9,149.4z M427.5,96.4l-10.1,6c-1.5,0.9-3.5,0.4-4.4-1.1s-0.4-3.5,1.1-4.4l10.1-6
					c1.5-0.9,3.5-0.4,4.4,1.1S429,95.5,427.5,96.4z M356-23.2l-10.1,6c-1.5,0.9-3.5,0.4-4.4-1.1s-0.4-3.5,1.1-4.4l10.1-6
					c1.5-0.9,3.5-0.4,4.4,1.1S357.5-24.1,356-23.2z M465.4-96.2l10.1-6c1.5-0.9,3.5-0.4,4.4,1.1s0.4,3.5-1.1,4.4l-10.1,6
					c-1.5,0.9-3.5,0.4-4.4-1.1C463.3-93.3,463.8-95.3,465.4-96.2z M434.2-77.5l10.1-6c1.5-0.9,3.5-0.4,4.4,1.1s0.4,3.5-1.1,4.4
					l-10.1,6c-1.5,0.9-3.5,0.4-4.4-1.1S432.7-76.6,434.2-77.5z M403.1-58.9l10.1-6c1.5-0.9,3.5-0.4,4.4,1.1s0.4,3.5-1.1,4.4l-10.1,6
					c-1.5,0.9-3.5,0.4-4.4-1.1C401-56,401.5-58,403.1-58.9z M371.9-40.3l10.1-6c1.5-0.9,3.5-0.4,4.4,1.1s0.4,3.5-1.1,4.4l-10.1,6
					c-1.5,0.9-3.5,0.4-4.4-1.1C369.9-37.4,370.4-39.4,371.9-40.3z M456.9,78.9l-10.1,6c-1.5,0.9-3.5,0.4-4.4-1.1s-0.4-3.5,1.1-4.4
					l10.1-6c1.5-0.9,3.5-0.4,4.4,1.1S458.4,78,456.9,78.9z M488,60.3l-10.1,6c-1.5,0.9-3.5,0.4-4.4-1.1s-0.4-3.5,1.1-4.4l10.1-6
					c1.5-0.9,3.5-0.4,4.4,1.1C490.1,57.4,489.6,59.3,488,60.3z M519.2,41.6l-10.1,6c-1.5,0.9-3.5,0.4-4.4-1.1s-0.4-3.5,1.1-4.4
					l10.1-6c1.5-0.9,3.5-0.4,4.4,1.1C521.2,38.7,520.7,40.7,519.2,41.6z M550.3,23l-10.1,6c-1.5,0.9-3.5,0.4-4.4-1.1
					s-0.4-3.5,1.1-4.4l10.1-6c1.5-0.9,3.5-0.4,4.4,1.1S551.8,22.1,550.3,23z M458.9,57.4c-8.2,4.9-18.7,2.2-23.6-5.9L396-14.3
					c-0.6-0.9-1-1.9-1.4-2.9c-0.2-0.6-0.4-1.3-0.5-1.9c-0.1-0.3-0.2-0.7-0.2-1c-0.2-0.9-0.2-1.8-0.2-2.6c0-0.1,0-0.1,0-0.2
					c0-1,0.1-1.9,0.2-2.9l0,0l0,0c0.8-4.8,3.5-9.3,8.1-12l92.6-55.4c8.2-4.9,18.7-2.2,23.6,5.9l39.3,65.7c2.9,4.8,3.1,10.5,1.1,15.4
					l0,0c-0.4,1-0.9,2-1.6,2.9c-0.1,0.1-0.1,0.2-0.2,0.3c-0.6,0.8-1.2,1.6-1.9,2.3c-0.1,0.2-0.3,0.3-0.4,0.5
					c-0.9,0.8-1.8,1.6-2.9,2.2L458.9,57.4z M581.5,4.4l-10.1,6c-1.5,0.9-3.5,0.4-4.4-1.1s-0.4-3.5,1.1-4.4l10.1-6
					c1.5-0.9,3.5-0.4,4.4,1.1S583,3.5,581.5,4.4z M509.9-115.3l-10.1,6c-1.5,0.9-3.5,0.4-4.4-1.1s-0.4-3.5,1.1-4.4l10.1-6
					c1.5-0.9,3.5-0.4,4.4,1.1C511.9-118.2,511.4-116.2,509.9-115.3z"/>
			</g>
		</g>
		<g>
			<defs>
				<rect id="SVGID_00000066502161271211626210000016518174635183959188_" width="1920" height="1080"/>
			</defs>
			<clipPath id="SVGID_00000024708814692032359580000018078068740729279632_">
				<use xlink:href="#SVGID_00000066502161271211626210000016518174635183959188_"  style="overflow:visible;"/>
			</clipPath>
			<g style="clip-path:url(#SVGID_00000024708814692032359580000018078068740729279632_);">
				<path class="st2" d="M315.8,1179.6l-77.9-151.8L156,868.3L74.1,708.7L-3.4,557.8c-2.5-4.8-8.4-6.7-13.2-4.2l-132,67.7
					c-4.8,2.5-6.7,8.4-4.2,13.2l77.4,150.9L6.6,945l81.9,159.6l77.9,151.8c2.2,4.3,7.5,6,11.8,3.8l133.7-68.7
					C316.3,1189.2,318,1183.9,315.8,1179.6z M37.2,661l5.4,10.4c0.8,1.6,0.2,3.5-1.4,4.4c-1.6,0.8-3.5,0.2-4.4-1.4L31.4,664
					c-0.8-1.6-0.2-3.5,1.4-4.4C34.4,658.8,36.4,659.4,37.2,661z M20.6,628.7l5.4,10.4c0.8,1.6,0.2,3.5-1.4,4.4
					c-1.6,0.8-3.5,0.2-4.4-1.4l-5.4-10.4c-0.8-1.6-0.2-3.5,1.4-4.4C17.8,626.5,19.8,627.1,20.6,628.7z M4,596.4l5.4,10.4
					c0.8,1.6,0.2,3.5-1.4,4.4c-1.6,0.8-3.5,0.2-4.4-1.4l-5.4-10.4c-0.8-1.6-0.2-3.5,1.4-4.4C1.3,594.2,3.2,594.8,4,596.4z
					 M-12.5,564.2l5.4,10.4c0.8,1.6,0.2,3.5-1.4,4.4c-1.6,0.8-3.5,0.2-4.4-1.4l-5.4-10.4c-0.8-1.6-0.2-3.5,1.4-4.4
					C-15.3,561.9-13.3,562.6-12.5,564.2z M-137,641.2l-5.4-10.4c-0.8-1.6-0.2-3.5,1.4-4.4c1.6-0.8,3.5-0.2,4.4,1.4l5.4,10.4
					c0.8,1.6,0.2,3.5-1.4,4.4C-134.2,643.4-136.1,642.8-137,641.2z M-120.4,673.5l-5.4-10.4c-0.8-1.6-0.2-3.5,1.4-4.4
					c1.6-0.8,3.5-0.2,4.4,1.4l5.4,10.4c0.8,1.6,0.2,3.5-1.4,4.4C-117.6,675.7-119.6,675.1-120.4,673.5z M-103.8,705.8l-5.4-10.4
					c-0.8-1.6-0.2-3.5,1.4-4.4c1.6-0.8,3.5-0.2,4.4,1.4l5.4,10.4c0.8,1.6,0.2,3.5-1.4,4.4C-101,708-103,707.4-103.8,705.8z
					 M-87.2,738.1l-5.4-10.4c-0.8-1.6-0.2-3.5,1.4-4.4c1.6-0.8,3.5-0.2,4.4,1.4l5.4,10.4c0.8,1.6,0.2,3.5-1.4,4.4
					C-84.5,740.3-86.4,739.7-87.2,738.1z M-115.6,644.6c-4.3-8.5-1-18.8,7.5-23.2l68.1-35c1-0.5,2-0.9,3-1.2c0.6-0.2,1.3-0.3,2-0.4
					c0.3-0.1,0.7-0.1,1-0.2c0.9-0.1,1.8-0.1,2.7-0.1c0.1,0,0.1,0,0.2,0c1,0.1,1.9,0.2,2.8,0.4l0,0l0,0c4.8,1.1,9.1,4.1,11.5,8.8
					l49.3,96c4.3,8.5,1,18.8-7.5,23.2l-68.1,35c-5,2.6-10.7,2.4-15.4,0.1l0,0c-1-0.5-1.9-1.1-2.8-1.7c-0.1-0.1-0.2-0.1-0.3-0.2
					c-0.8-0.6-1.5-1.3-2.2-2.1c-0.1-0.2-0.3-0.3-0.4-0.5c-0.8-0.9-1.5-1.9-2-3.1L-115.6,644.6z M-70.7,770.4l-5.4-10.4
					c-0.8-1.6-0.2-3.5,1.4-4.4c1.6-0.8,3.5-0.2,4.4,1.4l5.4,10.4c0.8,1.6,0.2,3.5-1.4,4.4C-67.9,772.6-69.8,772-70.7,770.4z
					 M53.4,706.7L48,696.3c-0.8-1.6-0.2-3.5,1.4-4.4c1.6-0.8,3.5-0.2,4.4,1.4l5.4,10.4c0.8,1.6,0.2,3.5-1.4,4.4
					C56.1,708.9,54.2,708.3,53.4,706.7z M119.1,820.6l5.4,10.4c0.8,1.6,0.2,3.5-1.4,4.4c-1.6,0.8-3.5,0.2-4.4-1.4l-5.4-10.4
					c-0.8-1.6-0.2-3.5,1.4-4.4C116.3,818.4,118.3,819,119.1,820.6z M102.5,788.3l5.4,10.4c0.8,1.6,0.2,3.5-1.4,4.4
					c-1.6,0.8-3.5,0.2-4.4-1.4l-5.4-10.4c-0.8-1.6-0.2-3.5,1.4-4.4C99.8,786.1,101.7,786.7,102.5,788.3z M86,756l5.4,10.4
					c0.8,1.6,0.2,3.5-1.4,4.4c-1.6,0.8-3.5,0.2-4.4-1.4L80.2,759c-0.8-1.6-0.2-3.5,1.4-4.4C83.2,753.8,85.1,754.4,86,756z
					 M69.4,723.7l5.4,10.4c0.8,1.6,0.2,3.5-1.4,4.4c-1.6,0.8-3.5,0.2-4.4-1.4l-5.4-10.4c-0.8-1.6-0.2-3.5,1.4-4.4
					C66.6,721.5,68.6,722.1,69.4,723.7z M-55,800.8l-5.4-10.4c-0.8-1.6-0.2-3.5,1.4-4.4c1.6-0.8,3.5-0.2,4.4,1.4l5.4,10.4
					c0.8,1.6,0.2,3.5-1.4,4.4C-52.3,803-54.2,802.4-55,800.8z M-38.5,833.1l-5.4-10.4c-0.8-1.6-0.2-3.5,1.4-4.4
					c1.6-0.8,3.5-0.2,4.4,1.4l5.4,10.4c0.8,1.6,0.2,3.5-1.4,4.4C-35.7,835.3-37.6,834.7-38.5,833.1z M-21.9,865.4l-5.4-10.4
					c-0.8-1.6-0.2-3.5,1.4-4.4c1.6-0.8,3.5-0.2,4.4,1.4l5.4,10.4c0.8,1.6,0.2,3.5-1.4,4.4C-19.1,867.6-21.1,867-21.9,865.4z
					 M-5.3,897.7l-5.4-10.4c-0.8-1.6-0.2-3.5,1.4-4.4c1.6-0.8,3.5-0.2,4.4,1.4l5.4,10.4c0.8,1.6,0.2,3.5-1.4,4.4
					C-2.6,899.9-4.5,899.2-5.3,897.7z M-33.7,804.2c-4.3-8.5-1-18.8,7.5-23.2l68.1-35c1-0.5,2-0.9,3-1.2c0.6-0.2,1.3-0.3,2-0.4
					c0.3-0.1,0.7-0.1,1-0.2c0.9-0.1,1.8-0.1,2.7-0.1c0.1,0,0.1,0,0.2,0c1,0.1,1.9,0.2,2.8,0.4l0,0l0,0c4.8,1.1,9.1,4.1,11.5,8.8
					l49.3,96c4.3,8.5,1,18.8-7.5,23.2l-68.1,35c-5,2.6-10.7,2.4-15.4,0.1l0,0c-1-0.5-1.9-1.1-2.8-1.7c-0.1-0.1-0.2-0.1-0.3-0.2
					c-0.8-0.6-1.5-1.3-2.2-2.1c-0.1-0.2-0.3-0.3-0.4-0.5c-0.8-0.9-1.5-1.9-2-3.1L-33.7,804.2z M11.3,929.9l-5.4-10.4
					c-0.8-1.6-0.2-3.5,1.4-4.4c1.6-0.8,3.5-0.2,4.4,1.4L17,927c0.8,1.6,0.2,3.5-1.4,4.4C14,932.2,12.1,931.5,11.3,929.9z
					 M135.3,866.3l-5.4-10.4c-0.8-1.6-0.2-3.5,1.4-4.4c1.6-0.8,3.5-0.2,4.4,1.4l5.4,10.4c0.8,1.6,0.2,3.5-1.4,4.4
					C138,868.5,136.1,867.9,135.3,866.3z M201,980.2l5.4,10.4c0.8,1.6,0.2,3.5-1.4,4.4c-1.6,0.8-3.5,0.2-4.4-1.4l-5.4-10.4
					c-0.8-1.6-0.2-3.5,1.4-4.4C198.2,978,200.2,978.6,201,980.2z M184.4,947.9l5.4,10.4c0.8,1.6,0.2,3.5-1.4,4.4
					c-1.6,0.8-3.5,0.2-4.4-1.4l-5.4-10.4c-0.8-1.6-0.2-3.5,1.4-4.4C181.7,945.7,183.6,946.3,184.4,947.9z M167.9,915.6l5.4,10.4
					c0.8,1.6,0.2,3.5-1.4,4.4c-1.6,0.8-3.5,0.2-4.4-1.4l-5.4-10.4c-0.8-1.6-0.2-3.5,1.4-4.4C165.1,913.4,167.1,914,167.9,915.6z
					 M151.3,883.3l5.4,10.4c0.8,1.6,0.2,3.5-1.4,4.4c-1.6,0.8-3.5,0.2-4.4-1.4l-5.4-10.4c-0.8-1.6-0.2-3.5,1.4-4.4
					C148.5,881.1,150.5,881.7,151.3,883.3z M26.9,960.4L21.5,950c-0.8-1.6-0.2-3.5,1.4-4.4c1.6-0.8,3.5-0.2,4.4,1.4l5.4,10.4
					c0.8,1.6,0.2,3.5-1.4,4.4C29.6,962.6,27.7,962,26.9,960.4z M43.4,992.7L38,982.3c-0.8-1.6-0.2-3.5,1.4-4.4
					c1.6-0.8,3.5-0.2,4.4,1.4l5.4,10.4c0.8,1.6,0.2,3.5-1.4,4.4C46.2,994.9,44.3,994.3,43.4,992.7z M60,1025l-5.4-10.4
					c-0.8-1.6-0.2-3.5,1.4-4.4c1.6-0.8,3.5-0.2,4.4,1.4l5.4,10.4c0.8,1.6,0.2,3.5-1.4,4.4C62.8,1027.2,60.8,1026.5,60,1025z
					 M76.6,1057.2l-5.4-10.4c-0.8-1.6-0.2-3.5,1.4-4.4c1.6-0.8,3.5-0.2,4.4,1.4l5.4,10.4c0.8,1.6,0.2,3.5-1.4,4.4
					S77.4,1058.8,76.6,1057.2z M48.2,963.8c-4.3-8.5-1-18.8,7.5-23.2l68.1-35c1-0.5,2-0.9,3-1.2c0.6-0.2,1.3-0.3,2-0.4
					c0.3-0.1,0.7-0.1,1-0.2c0.9-0.1,1.8-0.1,2.7-0.1c0.1,0,0.1,0,0.2,0c1,0.1,1.9,0.2,2.8,0.4l0,0l0,0c4.8,1.1,9.1,4.1,11.5,8.8
					l49.3,96c4.3,8.5,1,18.8-7.5,23.2l-68.1,35c-5,2.6-10.7,2.4-15.4,0.1l0,0c-1-0.5-1.9-1.1-2.8-1.7c-0.1-0.1-0.2-0.1-0.3-0.2
					c-0.8-0.6-1.5-1.3-2.2-2.1c-0.1-0.2-0.3-0.3-0.4-0.5c-0.8-0.9-1.5-1.9-2-3.1L48.2,963.8z M93.2,1089.5l-5.4-10.4
					c-0.8-1.6-0.2-3.5,1.4-4.4c1.6-0.8,3.5-0.2,4.4,1.4l5.4,10.4c0.8,1.6,0.2,3.5-1.4,4.4C95.9,1091.7,94,1091.1,93.2,1089.5z
					 M217.2,1025.9l-5.4-10.4c-0.8-1.6-0.2-3.5,1.4-4.4c1.6-0.8,3.5-0.2,4.4,1.4l5.4,10.4c0.8,1.6,0.2,3.5-1.4,4.4
					C220,1028.1,218,1027.5,217.2,1025.9z M282.9,1139.8l5.4,10.4c0.8,1.6,0.2,3.5-1.4,4.4c-1.6,0.8-3.5,0.2-4.4-1.4l-5.4-10.4
					c-0.8-1.6-0.2-3.5,1.4-4.4C280.2,1137.5,282.1,1138.2,282.9,1139.8z M266.4,1107.5l5.4,10.4c0.8,1.6,0.2,3.5-1.4,4.4
					c-1.6,0.8-3.5,0.2-4.4-1.4l-5.4-10.4c-0.8-1.6-0.2-3.5,1.4-4.4C263.6,1105.3,265.5,1105.9,266.4,1107.5z M249.8,1075.2l5.4,10.4
					c0.8,1.6,0.2,3.5-1.4,4.4c-1.6,0.8-3.5,0.2-4.4-1.4l-5.4-10.4c-0.8-1.6-0.2-3.5,1.4-4.4C247,1073,249,1073.6,249.8,1075.2z
					 M233.2,1042.9l5.4,10.4c0.8,1.6,0.2,3.5-1.4,4.4c-1.6,0.8-3.5,0.2-4.4-1.4l-5.4-10.4c-0.8-1.6-0.2-3.5,1.4-4.4
					C230.4,1040.7,232.4,1041.3,233.2,1042.9z M108.8,1120l-5.4-10.4c-0.8-1.6-0.2-3.5,1.4-4.4c1.6-0.8,3.5-0.2,4.4,1.4l5.4,10.4
					c0.8,1.6,0.2,3.5-1.4,4.4C111.6,1122.2,109.6,1121.6,108.8,1120z M125.4,1152.2l-5.4-10.4c-0.8-1.6-0.2-3.5,1.4-4.4
					c1.6-0.8,3.5-0.2,4.4,1.4l5.4,10.4c0.8,1.6,0.2,3.5-1.4,4.4C128.1,1154.5,126.2,1153.8,125.4,1152.2z M141.9,1184.5l-5.4-10.4
					c-0.8-1.6-0.2-3.5,1.4-4.4c1.6-0.8,3.5-0.2,4.4,1.4l5.4,10.4c0.8,1.6,0.2,3.5-1.4,4.4S142.8,1186.1,141.9,1184.5z M158.5,1216.8
					l-5.4-10.4c-0.8-1.6-0.2-3.5,1.4-4.4c1.6-0.8,3.5-0.2,4.4,1.4l5.4,10.4c0.8,1.6,0.2,3.5-1.4,4.4
					C161.3,1219,159.3,1218.4,158.5,1216.8z M130.1,1123.3c-4.3-8.5-1-18.8,7.5-23.2l68.1-35c1-0.5,2-0.9,3-1.2
					c0.6-0.2,1.3-0.3,2-0.4c0.3-0.1,0.7-0.1,1-0.2c0.9-0.1,1.8-0.1,2.7-0.1c0.1,0,0.1,0,0.2,0c1,0.1,1.9,0.2,2.8,0.4l0,0l0,0
					c4.8,1.1,9.1,4.1,11.5,8.8l49.3,96c4.3,8.5,1,18.8-7.5,23.2l-68.1,35c-5,2.6-10.7,2.4-15.4,0.1l0,0c-1-0.5-1.9-1.1-2.8-1.7
					c-0.1-0.1-0.2-0.1-0.3-0.2c-0.8-0.6-1.5-1.3-2.2-2.1c-0.1-0.2-0.3-0.3-0.4-0.5c-0.8-0.9-1.5-1.9-2-3.1L130.1,1123.3z
					 M175.1,1249.1l-5.4-10.4c-0.8-1.6-0.2-3.5,1.4-4.4c1.6-0.8,3.5-0.2,4.4,1.4l5.4,10.4c0.8,1.6,0.2,3.5-1.4,4.4
					C177.9,1251.3,175.9,1250.7,175.1,1249.1z M299.1,1185.4l-5.4-10.4c-0.8-1.6-0.2-3.5,1.4-4.4c1.6-0.8,3.5-0.2,4.4,1.4l5.4,10.4
					c0.8,1.6,0.2,3.5-1.4,4.4C301.9,1187.7,299.9,1187,299.1,1185.4z"/>
			</g>
		</g>
		<g>
			<defs>
				<rect id="SVGID_00000075872900522670593280000000321636168201836451_" width="1920" height="1080"/>
			</defs>
			<clipPath id="SVGID_00000065056419415047504280000003245055804844897959_">
				<use xlink:href="#SVGID_00000075872900522670593280000000321636168201836451_"  style="overflow:visible;"/>
			</clipPath>
			<g style="clip-path:url(#SVGID_00000065056419415047504280000003245055804844897959_);">
				<path class="st2" d="M1699.3,732.7L1559,829.8L1411.5,932L1264,1034.1l-139.4,96.5c-4.4,3.1-5.6,9.2-2.5,13.6l84.5,122
					c3.1,4.4,9.2,5.6,13.6,2.5l139.4-96.5l147.5-102.1L1654.6,968l140.2-97.1c4-2.8,5-8.2,2.2-12.2L1711.5,735
					C1708.7,731,1703.3,730,1699.3,732.7z M1221.6,1076.9l9.7-6.7c1.5-1,3.5-0.7,4.5,0.8s0.7,3.5-0.8,4.5l-9.7,6.7
					c-1.5,1-3.5,0.7-4.5-0.8C1219.8,1079.9,1220.2,1077.9,1221.6,1076.9z M1191.8,1097.5l9.7-6.7c1.5-1,3.5-0.7,4.5,0.8
					s0.7,3.5-0.8,4.5l-9.7,6.7c-1.5,1-3.5,0.7-4.5-0.8C1190,1100.6,1190.3,1098.6,1191.8,1097.5z M1162,1118.2l9.7-6.7
					c1.5-1,3.5-0.7,4.5,0.8s0.7,3.5-0.8,4.5l-9.7,6.7c-1.5,1-3.5,0.7-4.5-0.8C1160.1,1121.2,1160.5,1119.2,1162,1118.2z
					 M1132.1,1138.9l9.7-6.7c1.5-1,3.5-0.7,4.5,0.8s0.7,3.5-0.8,4.5l-9.7,6.7c-1.5,1-3.5,0.7-4.5-0.8
					C1130.3,1141.9,1130.6,1139.9,1132.1,1138.9z M1224.8,1252.1l-9.7,6.7c-1.5,1-3.5,0.7-4.5-0.8s-0.7-3.5,0.8-4.5l9.7-6.7
					c1.5-1,3.5-0.7,4.5,0.8C1226.7,1249.1,1226.3,1251.1,1224.8,1252.1z M1254.7,1231.5l-9.7,6.7c-1.5,1-3.5,0.7-4.5-0.8
					s-0.7-3.5,0.8-4.5l9.7-6.7c1.5-1,3.5-0.7,4.5,0.8C1256.5,1228.4,1256.1,1230.4,1254.7,1231.5z M1284.5,1210.8l-9.7,6.7
					c-1.5,1-3.5,0.7-4.5-0.8s-0.7-3.5,0.8-4.5l9.7-6.7c1.5-1,3.5-0.7,4.5,0.8S1286,1209.8,1284.5,1210.8z M1314.3,1190.1l-9.7,6.7
					c-1.5,1-3.5,0.7-4.5-0.8s-0.7-3.5,0.8-4.5l9.7-6.7c1.5-1,3.5-0.7,4.5,0.8C1316.2,1187.1,1315.8,1189.1,1314.3,1190.1z
					 M1225.4,1230.5c-7.8,5.4-18.5,3.5-24-4.4l-43.6-62.9c-0.6-0.9-1.1-1.9-1.6-2.8c-0.3-0.6-0.4-1.3-0.6-1.9
					c-0.1-0.3-0.2-0.6-0.3-1c-0.2-0.9-0.3-1.7-0.4-2.6c0-0.1,0-0.1,0-0.2c-0.1-1-0.1-1.9,0-2.9l0,0l0,0c0.5-4.9,2.9-9.5,7.3-12.5
					l88.7-61.4c7.8-5.4,18.5-3.5,24,4.4l43.6,62.9c3.2,4.6,3.8,10.3,2.1,15.3l0,0c-0.4,1.1-0.8,2.1-1.4,3c-0.1,0.1-0.1,0.2-0.1,0.3
					c-0.5,0.9-1.1,1.7-1.8,2.4c-0.1,0.2-0.2,0.3-0.4,0.5c-0.8,0.9-1.7,1.7-2.8,2.4L1225.4,1230.5z M1344.2,1169.5l-9.7,6.7
					c-1.5,1-3.5,0.7-4.5-0.8s-0.7-3.5,0.8-4.5l9.7-6.7c1.5-1,3.5-0.7,4.5,0.8C1346,1166.4,1345.6,1168.5,1344.2,1169.5z
					 M1264.8,1054.9l-9.7,6.7c-1.5,1-3.5,0.7-4.5-0.8s-0.7-3.5,0.8-4.5l9.7-6.7c1.5-1,3.5-0.7,4.5,0.8
					C1266.6,1051.8,1266.3,1053.8,1264.8,1054.9z M1369.1,974.8l9.7-6.7c1.5-1,3.5-0.7,4.5,0.8s0.7,3.5-0.8,4.5l-9.7,6.7
					c-1.5,1-3.5,0.7-4.5-0.8C1367.3,977.8,1367.6,975.8,1369.1,974.8z M1339.3,995.4l9.7-6.7c1.5-1,3.5-0.7,4.5,0.8s0.7,3.5-0.8,4.5
					l-9.7,6.7c-1.5,1-3.5,0.7-4.5-0.8C1337.4,998.5,1337.8,996.4,1339.3,995.4z M1309.4,1016.1l9.7-6.7c1.5-1,3.5-0.7,4.5,0.8
					s0.7,3.5-0.8,4.5l-9.7,6.7c-1.5,1-3.5,0.7-4.5-0.8S1308,1017.1,1309.4,1016.1z M1279.6,1036.7l9.7-6.7c1.5-1,3.5-0.7,4.5,0.8
					s0.7,3.5-0.8,4.5l-9.7,6.7c-1.5,1-3.5,0.7-4.5-0.8C1277.8,1039.8,1278.1,1037.8,1279.6,1036.7z M1372.3,1150l-9.7,6.7
					c-1.5,1-3.5,0.7-4.5-0.8s-0.7-3.5,0.8-4.5l9.7-6.7c1.5-1,3.5-0.7,4.5,0.8C1374.1,1147,1373.8,1149,1372.3,1150z M1402.1,1129.3
					l-9.7,6.7c-1.5,1-3.5,0.7-4.5-0.8s-0.7-3.5,0.8-4.5l9.7-6.7c1.5-1,3.5-0.7,4.5,0.8C1404,1126.3,1403.6,1128.3,1402.1,1129.3z
					 M1432,1108.7l-9.7,6.7c-1.5,1-3.5,0.7-4.5-0.8s-0.7-3.5,0.8-4.5l9.7-6.7c1.5-1,3.5-0.7,4.5,0.8
					C1433.8,1105.6,1433.4,1107.7,1432,1108.7z M1461.8,1088l-9.7,6.7c-1.5,1-3.5,0.7-4.5-0.8s-0.7-3.5,0.8-4.5l9.7-6.7
					c1.5-1,3.5-0.7,4.5,0.8C1463.6,1085,1463.3,1087,1461.8,1088z M1372.8,1128.4c-7.8,5.4-18.5,3.5-24-4.4l-43.6-62.9
					c-0.6-0.9-1.1-1.9-1.6-2.8c-0.3-0.6-0.4-1.3-0.6-1.9c-0.1-0.3-0.2-0.6-0.3-1c-0.2-0.9-0.3-1.7-0.4-2.6c0-0.1,0-0.1,0-0.2
					c-0.1-1-0.1-1.9,0-2.9l0,0l0,0c0.5-4.9,2.9-9.5,7.3-12.5l88.7-61.4c7.8-5.4,18.5-3.5,24,4.4l43.6,62.9
					c3.2,4.6,3.8,10.3,2.1,15.3l0,0c-0.4,1.1-0.8,2.1-1.4,3c-0.1,0.1-0.1,0.2-0.1,0.3c-0.5,0.9-1.1,1.7-1.8,2.4
					c-0.1,0.2-0.2,0.3-0.4,0.5c-0.8,0.9-1.7,1.7-2.8,2.4L1372.8,1128.4z M1491.6,1067.4l-9.7,6.7c-1.5,1-3.5,0.7-4.5-0.8
					s-0.7-3.5,0.8-4.5l9.7-6.7c1.5-1,3.5-0.7,4.5,0.8C1493.5,1064.3,1493.1,1066.3,1491.6,1067.4z M1412.3,952.7l-9.7,6.7
					c-1.5,1-3.5,0.7-4.5-0.8s-0.7-3.5,0.8-4.5l9.7-6.7c1.5-1,3.5-0.7,4.5,0.8C1414.1,949.7,1413.7,951.7,1412.3,952.7z
					 M1516.6,872.6l9.7-6.7c1.5-1,3.5-0.7,4.5,0.8s0.7,3.5-0.8,4.5l-9.7,6.7c-1.5,1-3.5,0.7-4.5-0.8
					C1514.7,875.7,1515.1,873.7,1516.6,872.6z M1486.7,893.3l9.7-6.7c1.5-1,3.5-0.7,4.5,0.8s0.7,3.5-0.8,4.5l-9.7,6.7
					c-1.5,1-3.5,0.7-4.5-0.8C1484.9,896.3,1485.3,894.3,1486.7,893.3z M1456.9,914l9.7-6.7c1.5-1,3.5-0.7,4.5,0.8s0.7,3.5-0.8,4.5
					l-9.7,6.7c-1.5,1-3.5,0.7-4.5-0.8S1455.4,915,1456.9,914z M1427.1,934.6l9.7-6.7c1.5-1,3.5-0.7,4.5,0.8s0.7,3.5-0.8,4.5
					l-9.7,6.7c-1.5,1-3.5,0.7-4.5-0.8C1425.2,937.7,1425.6,935.6,1427.1,934.6z M1519.8,1047.9l-9.7,6.7c-1.5,1-3.5,0.7-4.5-0.8
					s-0.7-3.5,0.8-4.5l9.7-6.7c1.5-1,3.5-0.7,4.5,0.8C1521.6,1044.8,1521.2,1046.9,1519.8,1047.9z M1549.6,1027.2l-9.7,6.7
					c-1.5,1-3.5,0.7-4.5-0.8s-0.7-3.5,0.8-4.5l9.7-6.7c1.5-1,3.5-0.7,4.5,0.8C1551.4,1024.2,1551.1,1026.2,1549.6,1027.2z
					 M1579.4,1006.6l-9.7,6.7c-1.5,1-3.5,0.7-4.5-0.8s-0.7-3.5,0.8-4.5l9.7-6.7c1.5-1,3.5-0.7,4.5,0.8
					C1581.3,1003.5,1580.9,1005.5,1579.4,1006.6z M1609.3,985.9l-9.7,6.7c-1.5,1-3.5,0.7-4.5-0.8s-0.7-3.5,0.8-4.5l9.7-6.7
					c1.5-1,3.5-0.7,4.5,0.8C1611.1,982.9,1610.7,984.9,1609.3,985.9z M1520.3,1026.3c-7.8,5.4-18.5,3.5-24-4.4l-43.6-62.9
					c-0.6-0.9-1.1-1.9-1.6-2.8c-0.3-0.6-0.4-1.3-0.6-1.9c-0.1-0.3-0.2-0.6-0.3-1c-0.2-0.9-0.3-1.7-0.4-2.6c0-0.1,0-0.1,0-0.2
					c-0.1-1-0.1-1.9,0-2.9l0,0l0,0c0.5-4.9,2.9-9.5,7.3-12.5l88.7-61.4c7.8-5.4,18.5-3.5,24,4.4l43.6,62.9
					c3.2,4.6,3.8,10.3,2.1,15.3l0,0c-0.4,1.1-0.8,2.1-1.4,3c-0.1,0.1-0.1,0.2-0.1,0.3c-0.5,0.9-1.1,1.7-1.8,2.4
					c-0.1,0.2-0.2,0.3-0.4,0.5c-0.8,0.9-1.7,1.7-2.8,2.4L1520.3,1026.3z M1639.1,965.2l-9.7,6.7c-1.5,1-3.5,0.7-4.5-0.8
					s-0.7-3.5,0.8-4.5l9.7-6.7c1.5-1,3.5-0.7,4.5,0.8S1640.6,964.2,1639.1,965.2z M1559.7,850.6l-9.7,6.7c-1.5,1-3.5,0.7-4.5-0.8
					s-0.7-3.5,0.8-4.5l9.7-6.7c1.5-1,3.5-0.7,4.5,0.8C1561.6,847.6,1561.2,849.6,1559.7,850.6z M1664,770.5l9.7-6.7
					c1.5-1,3.5-0.7,4.5,0.8s0.7,3.5-0.8,4.5l-9.7,6.7c-1.5,1-3.5,0.7-4.5-0.8C1662.2,773.6,1662.6,771.5,1664,770.5z M1634.2,791.2
					l9.7-6.7c1.5-1,3.5-0.7,4.5,0.8s0.7,3.5-0.8,4.5l-9.7,6.7c-1.5,1-3.5,0.7-4.5-0.8C1632.4,794.2,1632.7,792.2,1634.2,791.2z
					 M1604.4,811.8l9.7-6.7c1.5-1,3.5-0.7,4.5,0.8s0.7,3.5-0.8,4.5l-9.7,6.7c-1.5,1-3.5,0.7-4.5-0.8
					C1602.5,814.9,1602.9,812.9,1604.4,811.8z M1574.5,832.5l9.7-6.7c1.5-1,3.5-0.7,4.5,0.8s0.7,3.5-0.8,4.5l-9.7,6.7
					c-1.5,1-3.5,0.7-4.5-0.8S1573.1,833.5,1574.5,832.5z M1667.2,945.8l-9.7,6.7c-1.5,1-3.5,0.7-4.5-0.8s-0.7-3.5,0.8-4.5l9.7-6.7
					c1.5-1,3.5-0.7,4.5,0.8C1669.1,942.7,1668.7,944.7,1667.2,945.8z M1697.1,925.1l-9.7,6.7c-1.5,1-3.5,0.7-4.5-0.8
					s-0.7-3.5,0.8-4.5l9.7-6.7c1.5-1,3.5-0.7,4.5,0.8S1698.5,924.1,1697.1,925.1z M1726.9,904.4l-9.7,6.7c-1.5,1-3.5,0.7-4.5-0.8
					s-0.7-3.5,0.8-4.5l9.7-6.7c1.5-1,3.5-0.7,4.5,0.8C1728.7,901.4,1728.4,903.4,1726.9,904.4z M1756.7,883.8l-9.7,6.7
					c-1.5,1-3.5,0.7-4.5-0.8s-0.7-3.5,0.8-4.5l9.7-6.7c1.5-1,3.5-0.7,4.5,0.8C1758.6,880.7,1758.2,882.8,1756.7,883.8z
					 M1667.8,924.2c-7.8,5.4-18.5,3.5-24-4.4l-43.6-62.9c-0.6-0.9-1.1-1.9-1.6-2.8c-0.3-0.6-0.4-1.3-0.6-1.9c-0.1-0.3-0.2-0.6-0.3-1
					c-0.2-0.9-0.3-1.7-0.4-2.6c0-0.1,0-0.1,0-0.2c-0.1-1-0.1-1.9,0-2.9l0,0l0,0c0.5-4.9,2.9-9.5,7.3-12.5l88.7-61.4
					c7.8-5.4,18.5-3.5,24,4.4l43.6,62.9c3.2,4.6,3.8,10.3,2.1,15.3l0,0c-0.4,1.1-0.8,2.1-1.4,3c-0.1,0.1-0.1,0.2-0.1,0.3
					c-0.5,0.9-1.1,1.7-1.8,2.4c-0.1,0.2-0.2,0.3-0.4,0.5c-0.8,0.9-1.7,1.7-2.8,2.4L1667.8,924.2z M1786.6,863.1l-9.7,6.7
					c-1.5,1-3.5,0.7-4.5-0.8s-0.7-3.5,0.8-4.5l9.7-6.7c1.5-1,3.5-0.7,4.5,0.8C1788.4,860.1,1788.1,862.1,1786.6,863.1z
					 M1707.2,748.5l-9.7,6.7c-1.5,1-3.5,0.7-4.5-0.8s-0.7-3.5,0.8-4.5l9.7-6.7c1.5-1,3.5-0.7,4.5,0.8
					C1709.1,745.5,1708.7,747.5,1707.2,748.5z"/>
			</g>
		</g>
	</g>
	<g>
		<polygon class="st5" points="707.1,1003 715,988.6 709.1,973.3 725.2,976.3 737.9,966 740.1,982.2 753.8,991.2 739,998.2 
			734.8,1014 723.5,1002.1 		"/>
		<polygon class="st5" points="740.1,982.2 739.9,981 729.1,1008 734.8,1014 739,998.2 753.8,991.2 		"/>
		<polygon class="st5" points="714.8,974.4 709.1,973.3 712.2,981.4 		"/>
		<polygon class="st5" points="713.4,984.6 714.5,987.4 719.9,975.3 717.3,974.8 		"/>
	</g>
	<g>
		<polygon class="st5" points="1321.5,99.5 1335.4,96.1 1341.9,83.4 1349.3,95.6 1363.5,97.8 1354.2,108.7 1356.5,122.8 
			1343.2,117.3 1330.5,123.8 1331.6,109.6 		"/>
		<polygon class="st5" points="1354.2,108.7 1354.9,107.8 1331.1,116.7 1330.5,123.8 1343.2,117.3 1356.5,122.8 		"/>
		<polygon class="st5" points="1344.5,87.7 1341.9,83.4 1338.4,90.1 		"/>
		<polygon class="st5" points="1337.1,92.8 1335.9,95.1 1346.9,91.5 1345.7,89.6 		"/>
	</g>
	<g>
		<polygon class="st5" points="1369.6,824.3 1383,829.2 1395.5,822.2 1394.9,836.5 1405.4,846.2 1391.7,850.1 1385.7,863.1 
			1377.8,851.2 1363.5,849.5 1372.4,838.3 		"/>
		<polygon class="st5" points="1391.7,850.1 1392.7,849.8 1368,843.9 1363.5,849.5 1377.8,851.2 1385.7,863.1 		"/>
		<polygon class="st5" points="1395.3,827.3 1395.5,822.2 1388.9,825.9 		"/>
		<polygon class="st5" points="1386.3,827.4 1384,828.7 1395.1,831.8 1395.2,829.5 		"/>
	</g>
	<g>
		<polygon class="st5" points="204.6,849 222.6,858.6 241.6,851.1 238,871.1 251,886.9 230.8,889.7 219.9,906.9 211,888.5 
			191.2,883.5 205.9,869.3 		"/>
		<polygon class="st5" points="230.8,889.7 232.3,889.5 198.6,876.4 191.2,883.5 211,888.5 219.9,906.9 		"/>
		<polygon class="st5" points="240.3,858.2 241.6,851.1 231.5,855.1 		"/>
		<polygon class="st5" points="227.6,856.6 224.1,858 239.2,864.5 239.7,861.4 		"/>
	</g>
	<g>
		<polygon class="st5" points="47.2,451.8 60.5,452.6 69.7,443.1 73,456 84.9,461.8 73.7,468.9 71.8,482 61.6,473.5 48.5,475.8 
			53.4,463.5 		"/>
		<polygon class="st5" points="73.7,468.9 74.5,468.4 51,469.6 48.5,475.8 61.6,473.5 71.8,482 		"/>
		<polygon class="st5" points="70.9,447.7 69.7,443.1 64.8,448.2 		"/>
		<polygon class="st5" points="62.9,450.1 61.2,451.9 71.9,451.7 71.4,449.7 		"/>
	</g>
	<g>
		<path class="st5" d="M1497.4,545.8c1,0,1.9,0.8,1.9,1.9v20c0,1-0.8,1.9-1.9,1.9c-1,0-1.9-0.8-1.9-1.9v-20
			C1495.5,546.7,1496.4,545.8,1497.4,545.8z"/>
		<path class="st5" d="M1497.4,585.1c1,0,1.9,0.8,1.9,1.9v20c0,1-0.8,1.9-1.9,1.9c-1,0-1.9-0.8-1.9-1.9v-20
			C1495.5,585.9,1496.4,585.1,1497.4,585.1z"/>
		<path class="st5" d="M1529,577.4c0,1-0.8,1.9-1.9,1.9h-20c-1,0-1.9-0.8-1.9-1.9c0-1,0.8-1.9,1.9-1.9h20
			C1528.1,575.5,1529,576.3,1529,577.4z"/>
		<path class="st5" d="M1489.7,577.4c0,1-0.8,1.9-1.9,1.9h-20c-1,0-1.9-0.8-1.9-1.9c0-1,0.8-1.9,1.9-1.9h20
			C1488.8,575.5,1489.7,576.3,1489.7,577.4z"/>
		<path class="st5" d="M1480.1,560c0.6-0.6,1.5-0.6,2.1,0l11,11c0.6,0.6,0.6,1.5,0,2.1s-1.5,0.6-2.1,0l-11-11
			C1479.5,561.5,1479.5,560.6,1480.1,560z"/>
		<path class="st5" d="M1501.7,581.6c0.6-0.6,1.5-0.6,2.1,0l11,11c0.6,0.6,0.6,1.5,0,2.1s-1.5,0.6-2.1,0l-11-11
			C1501.1,583.1,1501.1,582.2,1501.7,581.6z"/>
		<path class="st5" d="M1514.8,560c0.6,0.6,0.6,1.5,0,2.1l-11,11c-0.6,0.6-1.5,0.6-2.1,0s-0.6-1.5,0-2.1l11-11
			C1513.3,559.4,1514.2,559.4,1514.8,560z"/>
		<path class="st5" d="M1493.2,581.6c0.6,0.6,0.6,1.5,0,2.1l-11,11c-0.6,0.6-1.5,0.6-2.1,0s-0.6-1.5,0-2.1l11-11
			C1491.7,581,1492.6,581,1493.2,581.6z"/>
	</g>
	<g>
		<path class="st5" d="M313.4,62.3c0.9,0,1.7,0.8,1.7,1.7v17.9c0,0.9-0.8,1.7-1.7,1.7c-0.9,0-1.7-0.8-1.7-1.7V64
			C311.8,63.1,312.5,62.3,313.4,62.3z"/>
		<path class="st5" d="M313.4,97.5c0.9,0,1.7,0.8,1.7,1.7v17.9c0,0.9-0.8,1.7-1.7,1.7c-0.9,0-1.7-0.8-1.7-1.7V99.2
			C311.8,98.3,312.5,97.5,313.4,97.5z"/>
		<path class="st5" d="M341.7,90.6c0,0.9-0.8,1.7-1.7,1.7h-17.9c-0.9,0-1.7-0.8-1.7-1.7c0-0.9,0.8-1.7,1.7-1.7H340
			C340.9,88.9,341.7,89.6,341.7,90.6z"/>
		<path class="st5" d="M306.5,90.6c0,0.9-0.8,1.7-1.7,1.7h-17.9c-0.9,0-1.7-0.8-1.7-1.7c0-0.9,0.8-1.7,1.7-1.7h17.9
			C305.8,88.9,306.5,89.6,306.5,90.6z"/>
		<path class="st5" d="M297.9,75c0.5-0.5,1.3-0.5,1.9,0l9.9,9.9c0.5,0.5,0.5,1.3,0,1.9c-0.5,0.5-1.3,0.5-1.9,0l-9.9-9.9
			C297.4,76.4,297.4,75.5,297.9,75z"/>
		<path class="st5" d="M317.3,94.4c0.5-0.5,1.3-0.5,1.9,0l9.9,9.9c0.5,0.5,0.5,1.3,0,1.9c-0.5,0.5-1.3,0.5-1.9,0l-9.9-9.9
			C316.7,95.7,316.7,94.9,317.3,94.4z"/>
		<path class="st5" d="M329,75c0.5,0.5,0.5,1.3,0,1.9l-9.9,9.9c-0.5,0.5-1.3,0.5-1.9,0c-0.5-0.5-0.5-1.3,0-1.9l9.9-9.9
			C327.6,74.5,328.5,74.5,329,75z"/>
		<path class="st5" d="M309.6,94.4c0.5,0.5,0.5,1.3,0,1.9l-9.9,9.9c-0.5,0.5-1.3,0.5-1.9,0c-0.5-0.5-0.5-1.3,0-1.9l9.9-9.9
			C308.3,93.9,309.1,93.9,309.6,94.4z"/>
	</g>
	<g>
		<path class="st5" d="M1060.6,948.7c0.9,0,1.7,0.8,1.7,1.7v17.9c0,0.9-0.8,1.7-1.7,1.7c-0.9,0-1.7-0.8-1.7-1.7v-17.9
			C1058.9,949.4,1059.7,948.7,1060.6,948.7z"/>
		<path class="st5" d="M1060.6,983.9c0.9,0,1.7,0.8,1.7,1.7v17.9c0,0.9-0.8,1.7-1.7,1.7c-0.9,0-1.7-0.8-1.7-1.7v-17.9
			C1058.9,984.6,1059.7,983.9,1060.6,983.9z"/>
		<path class="st5" d="M1088.9,976.9c0,0.9-0.8,1.7-1.7,1.7h-17.9c-0.9,0-1.7-0.8-1.7-1.7s0.8-1.7,1.7-1.7h17.9
			C1088.1,975.2,1088.9,976,1088.9,976.9z"/>
		<path class="st5" d="M1053.7,976.9c0,0.9-0.8,1.7-1.7,1.7h-17.9c-0.9,0-1.7-0.8-1.7-1.7s0.8-1.7,1.7-1.7h17.9
			C1052.9,975.2,1053.7,976,1053.7,976.9z"/>
		<path class="st5" d="M1045.1,961.4c0.5-0.5,1.3-0.5,1.9,0l9.9,9.9c0.5,0.5,0.5,1.3,0,1.9c-0.5,0.5-1.3,0.5-1.9,0l-9.9-9.9
			C1044.6,962.7,1044.6,961.9,1045.1,961.4z"/>
		<path class="st5" d="M1064.4,980.7c0.5-0.5,1.3-0.5,1.9,0l9.9,9.9c0.5,0.5,0.5,1.3,0,1.9c-0.5,0.5-1.3,0.5-1.9,0l-9.9-9.9
			C1063.9,982.1,1063.9,981.3,1064.4,980.7z"/>
		<path class="st5" d="M1076.2,961.4c0.5,0.5,0.5,1.3,0,1.9l-9.9,9.9c-0.5,0.5-1.3,0.5-1.9,0c-0.5-0.5-0.5-1.3,0-1.9l9.9-9.9
			C1074.8,960.9,1075.7,960.9,1076.2,961.4z"/>
		<path class="st5" d="M1056.8,980.7c0.5,0.5,0.5,1.3,0,1.9l-9.9,9.9c-0.5,0.5-1.3,0.5-1.9,0c-0.5-0.5-0.5-1.3,0-1.9l9.9-9.9
			C1055.5,980.2,1056.3,980.2,1056.8,980.7z"/>
	</g>
	<g>
		<path class="st5" d="M110,983.4c0.8,0,1.5,0.7,1.5,1.5v16.2c0,0.8-0.7,1.5-1.5,1.5s-1.5-0.7-1.5-1.5V985
			C108.5,984.1,109.1,983.4,110,983.4z"/>
		<path class="st5" d="M110,1015.3c0.8,0,1.5,0.7,1.5,1.5v16.2c0,0.8-0.7,1.5-1.5,1.5s-1.5-0.7-1.5-1.5v-16.2
			C108.5,1016,109.1,1015.3,110,1015.3z"/>
		<path class="st5" d="M135.6,1009c0,0.8-0.7,1.5-1.5,1.5h-16.2c-0.8,0-1.5-0.7-1.5-1.5s0.7-1.5,1.5-1.5h16.2
			C134.9,1007.5,135.6,1008.2,135.6,1009z"/>
		<path class="st5" d="M103.7,1009c0,0.8-0.7,1.5-1.5,1.5H85.9c-0.8,0-1.5-0.7-1.5-1.5s0.7-1.5,1.5-1.5h16.2
			C103,1007.5,103.7,1008.2,103.7,1009z"/>
		<path class="st5" d="M95.9,994.9c0.5-0.5,1.2-0.5,1.7,0l8.9,8.9c0.5,0.5,0.5,1.2,0,1.7s-1.2,0.5-1.7,0l-8.9-8.9
			C95.4,996.2,95.4,995.4,95.9,994.9z"/>
		<path class="st5" d="M113.5,1012.5c0.5-0.5,1.2-0.5,1.7,0l8.9,8.9c0.5,0.5,0.5,1.2,0,1.7s-1.2,0.5-1.7,0l-8.9-8.9
			C113,1013.7,113,1013,113.5,1012.5z"/>
		<path class="st5" d="M124.1,994.9c0.5,0.5,0.5,1.2,0,1.7l-8.9,8.9c-0.5,0.5-1.2,0.5-1.7,0s-0.5-1.2,0-1.7l8.9-8.9
			C122.9,994.5,123.6,994.5,124.1,994.9z"/>
		<path class="st5" d="M106.5,1012.5c0.5,0.5,0.5,1.2,0,1.7l-8.9,8.9c-0.5,0.5-1.2,0.5-1.7,0s-0.5-1.2,0-1.7l8.9-8.9
			C105.3,1012,106.1,1012,106.5,1012.5z"/>
	</g>
</g>
<g id="TEXTS">
</g>
</svg>
