<svg id="e5BfDLYmkhg1" xmlns="http://www.w3.org/2000/svg" xmlns:xlink="http://www.w3.org/1999/xlink" viewBox="0 0 385.31 135.99" shape-rendering="geometricPrecision" text-rendering="geometricPrecision">
<style><![CDATA[
#e5BfDLYmkhg20_tr {animation: e5BfDLYmkhg20_tr__tr 3000ms linear infinite normal forwards}@keyframes e5BfDLYmkhg20_tr__tr { 0% {transform: translate(49.905001px,86.085003px) rotate(0deg)} 50% {transform: translate(49.905001px,86.085003px) rotate(180deg)} 100% {transform: translate(49.905001px,86.085003px) rotate(360deg)}} #e5BfDLYmkhg23_tr {animation: e5BfDLYmkhg23_tr__tr 3000ms linear infinite normal forwards}@keyframes e5BfDLYmkhg23_tr__tr { 0% {transform: translate(55.274996px,85.014996px) rotate(0deg)} 50% {transform: translate(55.274996px,85.014996px) rotate(180deg)} 100% {transform: translate(55.274996px,85.014996px) rotate(360deg)}}
]]></style>
<g><g><g><path d="M113.5,65.53c-.1-.91.35-3.2.02-6.33l-2.05-19.4c-.4-3.75-1.68-7.24-2.88-8.73-.12-1.14,1.8-2.61,4.1-3.14c3.21-.68,6.54-1.27,9.9-1.62s6.74-.48,10.24-.5c1.82-.19,3.77,1.96,4.09,4.92.55,5.23-.85,8.26-1.42,8.32-.46.05-.93-.13-1.31-.44-.89-.83-3.81-2.3-6.7-2.46l.8,7.62c2.33-.25,3.93-1.51,5.23-1.64.91-.1,2.08,1.16,2.2,2.36.2,1.93-.33,5.61-1.58,5.75-.23.02-.41-.07-.54-.23-1.43-1-2.46-.95-4.73-.71l.9,8.53c.27,2.56,1.11,5.12,1.19,5.86.07.68-.11,1.16-.5,1.26-1.73.53-4.78,1.08-8.76,1.5-3.64.38-6.07.29-7.28.19-.52-.06-.85-.43-.92-1.11Z" fill="#ff514f" stroke-width="0"/><path d="M148.18,23.51c5.63-.59,11.18,1.87,12.92,4.74c1.05,1.73,11.61,25.58,12.46,27.04.52,1.15,1.86,2.33,1.99,3.59.13,1.19-2.42,2.15-8.45,2.79-4.61.49-6.9.55-7.94.49s-1.41-.31-1.48-.94c-.04-.34.08-.87.04-1.27-.04-.34-.14-.79-.22-1.01l-1.29-2.97-8.19.86-.54,2.53c-.16.65-.22,1.17-.16,1.74.05.46.24,1.18.27,1.47.04.4-.48.91-.99,1.02s-1.57.4-3.67.62c-2.67.28-3.65.33-4.34.29-.46,0-.88-.14-.92-.54-.05-.46.31-.84.62-1.79.33-1.19,6.39-28.86,6.56-29.97.31-1.99.48-3.67.49-5.17c0-1.61,1.09-3.34,2.85-3.52h-.01Zm2.24,16.33l-1.17,11.23l4.55-.48-3.38-10.75Z" fill="#ff514f" stroke-width="0"/><path d="M174.64,21.35c7.17-.76,11.53,4.59,13.78,11.26c1.68,5,3.05,13.08,4.17,17.74.64-2.66,1.65-7.77,1-13.97-.61-5.8-2.42-8.26-4.88-10.3-.31-.2-.51-.46-.54-.75-.22-2.05,3.81-6.96,9.27-7.54c6.83-.72,11.5,2.64,12.33,10.55c1.69,16.04-7.4,30.17-17.3,31.22-8.42.89-14.26-6.49-18.63-16.84-2.23-5.29-5.8-13.02-7.76-15.75-.28-2.67,4.06-5.15,8.55-5.62h.01Z" fill="#ff514f" stroke-width="0"/><path d="M234.17,55.22c-13.54,1.43-20.96-6.71-22.28-19.22-1.2-11.38,6.99-20.47,17.97-21.62c10.58-1.12,20.53,3.76,21.97,17.41c1.07,10.18-3.89,21.98-17.66,23.43Zm1.6-20.25c-.79-7.45-3.37-11.78-5.59-11.55-2.16.23-2.85,3.52-2.15,10.18.92,8.7,3.88,12.76,5.98,12.54c1.76-.19,2.51-4,1.76-11.17Z" fill="#ff514f" stroke-width="0"/><path d="M281.77,31.51c3.52,4.98,10.67,11.7,12.94,13.07.28,2.67-4.62,4.74-7.86,5.09-2.96.31-5.99-.12-6.99-.82-1.86-1.3-5.93-8.81-7.89-14.82l.49,4.61c.56,5.29,1.7,9.03,1.82,10.16.05.51-.43.85-.98,1.08-1.05.4-3.47.94-7.51,1.37-4.21.44-7.2.41-8.19.29-.52-.06-.85-.43-.92-1.11-.1-.91-.02-6.15-.41-9.85L254.6,24.71c-.39-3.7-1.11-6.67-2.08-8.29.6-1.91,4.48-4.39,9.09-4.87l7.85-.83c10.47-1.1,18.4,2.14,19.09,8.63.61,5.8-2.41,10.44-6.77,12.16h-.01ZM270.45,19.65l1.18,11.15c1.63-.92,3.7-3.09,3.35-6.39-.27-2.56-2.19-4.37-4.53-4.76Z" fill="#ff514f" stroke-width="0"/><path d="M312.33,34.44c.56,5.29,1.7,9.03,1.82,10.16.05.51-.48.91-.98,1.08-1.44.5-3.7.96-7.51,1.37-4.21.44-7.21.36-8.19.29-.52-.06-.85-.43-.92-1.11-.1-.91-.02-6.15-.41-9.85l-1.63-15.47c-.39-3.7-1.22-6.66-2.37-8.26-.23-2.22,1.83-4.51,8.54-5.22c2.28-.24,7.99.48,10.1,1.93-.46,2.18-.58,4.83-.13,9.1l1.69,15.99-.01-.01Z" fill="#ff514f" stroke-width="0"/><path d="M342.37,31.27c.56,5.29,1.76,8.5,1.88,9.64.1.91-.54,1.44-1.1,1.61-1.46.38-5.91,1.2-8.3,1.45-2.5.26-6.29.32-7.28.19-.58-.05-1.14-.46-1.22-1.25-.1-.91.23-6.01-.16-9.7l-1.85-17.52c-.21-.38-.46-.53-.74-.5-.97.1-4.31,4.94-5.14,8.54-.24,1-.66,1.39-1.4,1.47-.63.07-1.78-1.02-2.41-2.1s-1.81-4.12-2.23-8.11c-.54-5.12,2.75-7.71,4.54-8.24c1.51-.45,7.19-1.68,14.35-2.43c7.17-.76,13.58-1.03,15.23-.68c2.3.5,5.1,1.42,5.67,6.82.41,3.93-.34,7.17-.63,8.24-.25.95-.99,2.63-1.84,2.72-.91.1-1.48-.36-1.83-1.01-1.66-3.16-4.68-7.27-6.73-7.06-.28.03-.49.22-.62.64l1.82,17.29-.01-.01Z" fill="#ff514f" stroke-width="0"/><path d="M371.98,17.57c2.33-.25,5.07-1.51,6.33-1.65.97-.1,2.13,1.16,2.25,2.29.21,1.99-.38,5.68-1.57,5.8-.23.02-.41-.07-.6-.22-1.43-1-3.55-.89-5.82-.65l.82,7.79c3.98-.42,7.2-2.6,8.45-4.98.22-.14.44-.22.66-.24c1.14-.12,2.36,2.74,2.71,6.1.44,4.15-.79,6.12-2.25,6.51-2.47.6-7.79,1.4-13.48,2s-9.65.67-11.44.63c-.58,0-.91-.42-.98-1.11-.1-.91.22-6.06-.17-9.76L355.2,14.04c-.39-3.7-1.28-7.23-2.42-8.78-.12-1.14,1.41-2.45,3.71-3.04c3.36-.87,6.82-1.29,10.24-1.66c3.53-.37,7-.68,10.58-.54c1.31-.14,4.09,1.7,4.41,4.71.55,5.23-1.06,8.45-1.69,8.52-.34.04-.94-.19-1.32-.55-.84-.83-4.14-2.15-7.49-2.26l.75,7.11.01.02Z" fill="#ff514f" stroke-width="0"/><path d="M166.8,107.3c.56,5.29,1.64,9.03,1.76,10.17.05.51-.41,1.02-.97,1.19-1.46.38-3.59.84-7.12,1.21-3.64.38-7.55.45-8.48.32-.58-.05-.91-.42-.98-1.1-.1-.91-.02-6.15-.41-9.85l-.46-4.32-5.55,16.12c-.3.95-1.05,1.49-1.79,1.57s-1.53-.3-2.08-1.16L130,105.96l1.1,10.47c.28,2.62,1.55,4.32,1.61,4.95.06.57-.2.83-.75,1.06-.66.24-2.97.77-5.87,1.08-3.07.32-5.14.37-5.96.17-.59-.17-.91-.42-.99-1.16-.1-.91.23-4.91,0-7.02L117.2,97.13c-.39-3.7-1.68-7.24-2.82-8.73-.23-2.22,5.51-5.01,10.06-5.49c2.1-.22,7.18.45,9.78,3.86l8.85,12.99l5.51-15.42c.93-2.63,3.11-4.3,7.21-4.73c3.98-.42,7.81.44,9.36,2.06-.51,2.24-.52,5.4-.07,9.67l1.69,15.99.03-.03Z" fill="#ff514f" stroke-width="0"/><path d="M191.48,117.24c-13.54,1.43-20.96-6.71-22.28-19.22-1.2-11.38,6.99-20.47,17.97-21.62c10.58-1.12,20.53,3.76,21.97,17.41c1.07,10.18-3.9,21.98-17.66,23.43ZM193.08,97c-.79-7.45-3.37-11.78-5.59-11.55-2.16.23-2.85,3.52-2.15,10.18.92,8.71,3.88,12.76,5.98,12.54c1.76-.19,2.51-4,1.75-11.17h.01Z" fill="#ff514f" stroke-width="0"/><path d="M214.94,74.62c7.17-.76,11.53,4.59,13.78,11.26c1.68,5,3.05,13.08,4.17,17.74.64-2.66,1.65-7.77,1-13.97-.61-5.8-2.42-8.26-4.88-10.3-.31-.2-.51-.46-.54-.75-.22-2.05,3.81-6.96,9.27-7.54c6.83-.72,11.5,2.64,12.33,10.55c1.69,16.04-7.4,30.17-17.3,31.22-8.42.89-14.26-6.49-18.63-16.84-2.23-5.29-5.8-13.02-7.76-15.75-.28-2.67,4.06-5.14,8.55-5.62h.01Z" fill="#ff514f" stroke-width="0"/><path d="M271.12,96.3c.56,5.29,1.7,9.03,1.82,10.16.05.51-.48.91-.98,1.08-1.44.5-3.7.96-7.51,1.37-4.21.44-7.21.36-8.2.29-.52-.06-.85-.43-.92-1.11-.1-.91-.02-6.15-.41-9.85l-1.63-15.47c-.39-3.7-1.22-6.66-2.37-8.26-.23-2.22,1.83-4.51,8.54-5.22c2.28-.24,7.99.48,10.1,1.93-.46,2.18-.58,4.83-.13,9.1l1.69,15.99v-.01Z" fill="#ff514f" stroke-width="0"/><path d="M291.17,83.6c2.33-.25,5.08-1.51,6.33-1.65.97-.1,2.14,1.16,2.26,2.29.21,1.99-.38,5.68-1.57,5.8-.23.02-.41-.07-.6-.22-1.43-1-3.55-.89-5.82-.65l.82,7.79c3.98-.42,7.2-2.6,8.45-4.97.22-.14.44-.22.66-.24c1.14-.12,2.36,2.74,2.71,6.1.44,4.15-.79,6.12-2.25,6.51-2.47.6-7.79,1.4-13.48,2s-9.65.67-11.44.63c-.58,0-.91-.42-.98-1.1-.1-.91.22-6.06-.17-9.76L274.4,80.09c-.39-3.7-1.28-7.23-2.42-8.78-.12-1.14,1.41-2.45,3.71-3.04c3.36-.87,6.82-1.29,10.24-1.66c3.53-.37,7-.68,10.58-.54c1.31-.14,4.09,1.7,4.41,4.71.55,5.23-1.06,8.45-1.69,8.52-.34.04-.94-.19-1.32-.55-.84-.83-4.14-2.15-7.49-2.26l.75,7.11Z" fill="#ff514f" stroke-width="0"/><path d="M320.59,75.15c6.82,3.54,15.9,7.35,16.68,14.75.84,7.96-5.98,12.59-15.99,13.65-7.74.82-14.9-1.13-15.42-6.02-.4-3.81,2.62-6.26,6.26-6.64c1.88-.2,4.2.54,5.05,1.48-.21.77-.36,2.05-.24,3.19.14,1.37,1.53,2.54,2.84,2.4c1.37-.14,2.66-1.49,2.43-3.71-.22-2.05-1.71-3.62-3.68-4.39-5.7-2.22-13.86-6.48-14.68-14.33-.75-7.11,6.83-12.17,15.08-13.04c7.57-.8,13.31,1.87,13.76,6.08.37,3.47-2.13,5.98-5.32,6.31-2.05.22-3.88-.74-4.35-1.44.17-.59.13-1.51.04-2.36-.2-1.93-1.71-3.1-3.13-2.95-1.54.16-2.33,1.4-2.18,2.82.19,1.82,1.4,3.42,2.86,4.19l-.01.01Z" fill="#ff514f" stroke-width="0"/></g><g><g id="e5BfDLYmkhg20_tr" transform="translate(49.905001,86.085003) rotate(0)"><path d="M22.83,44.17C-0.32,59.12,-6.96,90.01,7.99,113.16s45.84,29.79,68.99,14.84s29.79-45.84,14.84-68.99-45.84-29.79-68.99-14.84ZM48.89,65.19l.3-15.63c.07-3.56,3.37-6.17,6.85-5.42L61.9,45.4c3.48.75,5.41,4.49,4.01,7.76L59.75,67.53c-1.07,2.49-3.74,3.87-6.39,3.3s-4.52-2.93-4.47-5.64ZM16.34,111.33l-3.25-5.03c-1.93-2.99-.65-7,2.65-8.32l14.51-5.81c2.51-1.01,5.39-.09,6.85,2.18c1.47,2.27,1.12,5.27-.83,7.15L25.01,112.34c-2.56,2.47-6.74,1.98-8.68-1.01h.01Zm34.98-4.61l-.3,15.63c-.07,3.56-3.37,6.17-6.85,5.42l-5.86-1.26c-3.48-.75-5.41-4.49-4.01-7.76l6.16-14.37c1.07-2.49,3.74-3.87,6.39-3.3s4.52,2.93,4.47,5.64ZM34.98,82.71c-.57,2.65-2.93,4.52-5.64,4.47l-15.63-.3c-3.56-.07-6.17-3.37-5.42-6.85l1.26-5.86c.75-3.48,4.49-5.41,7.76-4.01l14.37,6.16c2.49,1.07,3.87,3.74,3.3,6.39Zm40.5,37.01l-5.03,3.25c-2.99,1.93-7,.65-8.32-2.65l-5.81-14.51c-1.01-2.51-.09-5.39,2.18-6.85c2.27-1.47,5.27-1.12,7.15.83l10.84,11.26c2.47,2.56,1.98,6.74-1.01,8.68v-.01ZM38.09,51.58L43.9,66.09c1.01,2.51.09,5.39-2.18,6.85-2.27,1.47-5.27,1.12-7.15-.83L23.73,60.85c-2.47-2.56-1.98-6.74,1.01-8.68l5.03-3.25c2.99-1.93,7-.65,8.32,2.65v.01ZM91.92,91.87l-1.26,5.86c-.75,3.48-4.49,5.41-7.76,4.01L68.53,95.58c-2.49-1.07-3.87-3.74-3.3-6.39s2.93-4.52,5.64-4.47l15.63.3c3.56.07,6.17,3.37,5.42,6.85ZM84.47,73.92L69.96,79.73c-2.51,1.01-5.39.09-6.85-2.18-1.47-2.27-1.12-5.27.83-7.15L75.2,59.56c2.56-2.47,6.74-1.98,8.68,1.01l3.25,5.03c1.93,2.99.65,7-2.65,8.32h-.01Z" transform="translate(-49.905001,-86.085003)" fill="#75a5b0" stroke-width="0"/></g><path d="M45.38,118.18c24.04,3.53,72.12-7.34,88.28-49.53L120.3,61.41c0,0-.49,23.06-43.32,39.65l-31.6,17.12Z" fill="#312650" stroke-width="0"/><circle r="33.81" transform="matrix(.146083-.989272 0.989272 0.146083 55.27351 85.011544)" fill="#312650" stroke-width="0"/><g id="e5BfDLYmkhg23_tr" transform="translate(55.274996,85.014996) rotate(0)"><path d="M28.2,43.09c-23.15,14.96-29.79,45.85-14.84,69s45.84,29.79,68.99,14.84s29.79-45.84,14.84-68.99-45.84-29.79-68.99-14.84v-.01ZM54.26,64.11l.3-15.63c.07-3.56,3.37-6.17,6.85-5.42l5.86,1.26c3.48.75,5.41,4.49,4.01,7.76L65.12,66.45c-1.07,2.49-3.74,3.87-6.39,3.3s-4.52-2.93-4.47-5.64ZM21.71,110.25l-3.25-5.03c-1.93-2.99-.65-7,2.65-8.32l14.51-5.81c2.51-1.01,5.39-.09,6.85,2.18c1.47,2.27,1.12,5.27-.83,7.15L30.38,111.26c-2.56,2.47-6.74,1.98-8.68-1.01h.01Zm34.98-4.61l-.3,15.63c-.07,3.56-3.37,6.17-6.85,5.42l-5.86-1.26c-3.48-.75-5.41-4.49-4.01-7.76l6.16-14.37c1.07-2.49,3.74-3.87,6.39-3.3s4.52,2.93,4.47,5.64ZM40.35,81.63c-.57,2.65-2.93,4.52-5.64,4.47l-15.63-.3c-3.56-.07-6.17-3.37-5.42-6.85l1.26-5.86c.75-3.48,4.49-5.41,7.76-4.01l14.37,6.16c2.49,1.07,3.87,3.74,3.3,6.39Zm40.5,37.01l-5.03,3.25c-2.99,1.93-7,.65-8.32-2.65l-5.81-14.51c-1.01-2.51-.09-5.39,2.18-6.85c2.27-1.47,5.27-1.12,7.15.83l10.84,11.26c2.47,2.56,1.98,6.74-1.01,8.68v-.01ZM43.46,50.51l5.81,14.51c1.01,2.51.09,5.39-2.18,6.85-2.27,1.47-5.27,1.12-7.15-.83L29.1,59.78c-2.47-2.56-1.98-6.74,1.01-8.68l5.03-3.25c2.99-1.93,7-.65,8.32,2.65v.01ZM97.29,90.8l-1.26,5.86c-.75,3.48-4.49,5.41-7.76,4.01L73.9,94.51c-2.49-1.07-3.87-3.74-3.3-6.39s2.93-4.52,5.64-4.47l15.63.3c3.56.07,6.17,3.37,5.42,6.85ZM89.84,72.85L75.33,78.66c-2.51,1.01-5.39.09-6.85-2.18s-1.12-5.27.83-7.15L80.57,58.49c2.56-2.47,6.74-1.98,8.68,1.01l3.25,5.03c1.93,2.99.65,7-2.65,8.32h-.01Z" transform="translate(-55.274996,-85.014996)" fill="#96c9d1" stroke-width="0"/></g><path d="M51.79,79.61c-2.98,1.93-3.84,5.91-1.91,8.9s5.91,3.84,8.9,1.91c2.98-1.93,3.84-5.91,1.91-8.9-1.93-2.98-5.91-3.84-8.9-1.91Z" fill="#75a5b0" stroke-width="0"/><path d="M53.15,81.72c-1.82,1.17-2.34,3.6-1.17,5.42s3.6,2.34,5.42,1.17s2.34-3.6,1.17-5.42-3.6-2.34-5.42-1.17Z" fill="#312650" stroke-width="0"/><path d="M63.98,40.39c-.22.14-.49.2-.76.15-11.97-2.28-20.04.97-20.12,1.01-.53.22-1.14-.03-1.36-.56s.03-1.14.56-1.36c.35-.15,8.69-3.54,21.31-1.13.56.11.94.65.83,1.22-.06.29-.23.53-.46.68v-.01Z" fill="#fff" stroke-width="0"/><path d="M64.19,131.37c-.06.04-.12.07-.18.09-.28.11-7.01,2.69-17.28-.16-.55-.15-.88-.73-.72-1.28.15-.55.73-.88,1.28-.72c9.61,2.67,15.9.25,15.96.23.53-.21,1.14.05,1.35.59.19.47,0,.99-.4,1.26l-.01-.01Z" fill="#fff" stroke-width="0"/><path d="M73.3,43.2c-.34.22-.79.23-1.15-.01-1.88-1.26-4.88-1.64-4.91-1.64-.57-.07-.98-.59-.91-1.16s.59-.98,1.16-.91c.14.02,3.52.44,5.82,1.98.48.32.6.97.28,1.44-.08.12-.18.22-.3.29l.01.01Z" fill="#fff" stroke-width="0"/></g></g></g></svg>
